<?xml version="1.0" standalone="no"?>
<!DOCTYPE svg PUBLIC "-//W3C//DTD SVG 20010904//EN"
 "http://www.w3.org/TR/2001/REC-SVG-20010904/DTD/svg10.dtd">
<svg version="1.0" xmlns="http://www.w3.org/2000/svg"
 width="139.000000pt" height="123.000000pt" viewBox="0 0 139.000000 123.000000"
 preserveAspectRatio="xMidYMid meet">

<g transform="translate(0.000000,123.000000) scale(0.100000,-0.100000)"
fill="#6cafbd" stroke="none">
<path d="M20 1188 c-30 -49 -39 -23 99 -283 42 -78 58 -95 71 -75 5 8 12 11
15 8 10 -10 -4 -28 -21 -28 -8 0 -12 -5 -9 -11 5 -7 16 -2 31 12 22 21 23 23
6 36 -16 14 -16 14 0 9 15 -4 16 -3 6 14 -10 16 -9 22 10 38 12 11 22 25 22
32 0 7 6 10 14 7 11 -4 14 1 13 21 -2 21 2 26 16 24 12 -2 17 4 17 19 0 12 14
37 31 56 28 33 29 36 12 48 -16 12 -15 14 17 23 24 6 40 6 50 -2 13 -9 13 -9
2 6 -8 9 -20 14 -28 11 -9 -3 -14 0 -12 8 2 8 -15 23 -37 34 -33 16 -64 21
-172 23 l-132 4 -21 -34z"/>
<path d="M1213 1188 c-17 -18 -66 -96 -108 -173 -43 -77 -86 -152 -96 -167
-11 -14 -19 -29 -19 -32 0 -4 -12 -25 -26 -48 -14 -22 -54 -91 -88 -152 -34
-61 -69 -122 -77 -136 -17 -30 -41 -56 -47 -52 -2 2 -7 0 -10 -4 -4 -4 -1 -4
6 0 6 4 12 2 12 -3 0 -6 -4 -11 -10 -11 -5 0 -10 -8 -11 -17 0 -11 -3 -13 -6
-5 -2 6 -9 12 -14 12 -6 0 -6 -7 0 -18 11 -20 -11 -55 -42 -65 -10 -4 -15 -11
-12 -17 3 -6 -1 -7 -10 -4 -19 8 -38 41 -30 54 3 6 -1 7 -9 4 -9 -3 -16 -9
-16 -14 0 -4 -10 -12 -23 -18 -12 -6 -17 -11 -10 -11 9 -1 9 -9 2 -31 -11 -31
-34 -31 -26 0 3 14 0 17 -12 13 -9 -3 -4 7 12 21 15 14 24 26 18 26 -5 0 -13
-4 -16 -10 -3 -5 -16 -15 -28 -22 -20 -10 -21 -9 -9 5 11 13 10 15 -8 10 -13
-3 -19 -11 -16 -19 3 -8 1 -14 -5 -14 -6 0 -3 -7 5 -16 20 -19 20 -25 1 -18
-12 5 -12 2 1 -25 9 -18 20 -28 26 -25 6 4 8 3 5 -3 -4 -6 3 -30 14 -54 20
-39 23 -41 35 -25 7 10 10 24 7 32 -3 8 0 14 7 14 14 0 3 -61 -13 -71 -14 -10
28 -66 63 -84 38 -20 80 -19 110 2 34 23 42 35 101 138 29 50 87 151 129 225
43 74 88 155 102 180 14 25 35 63 48 85 13 22 36 65 53 95 16 30 62 111 102
180 107 185 118 208 110 239 -12 46 -33 61 -90 61 -45 0 -55 -4 -82 -32z
m-606 -915 c1 -22 -1 -24 -8 -10 -6 9 -7 22 -4 27 9 14 10 13 12 -17z m47 6
c3 -3 -4 -5 -14 -6 -11 -1 -20 2 -20 7 0 8 25 8 34 -1z m-7 -38 c0 -11 -5 -18
-9 -15 -4 3 -5 11 -1 19 7 21 12 19 10 -4z m-37 -26 c-7 -9 -15 -13 -19 -10
-3 3 1 10 9 15 21 14 24 12 10 -5z m2 -47 c-7 -7 -12 -8 -12 -2 0 14 12 26 19
19 2 -3 -1 -11 -7 -17z"/>
<path d="M368 1123 c6 -2 18 -2 25 0 6 3 1 5 -13 5 -14 0 -19 -2 -12 -5z"/>
</g>
</svg>
